<svg xmlns="http://www.w3.org/2000/svg" viewBox="0 0 1280 720" role="img" aria-labelledby="title desc">
  <title id="title">Jenkins WAR installation flow on Ubuntu</title>
  <desc id="desc">Infographic showing Java 17, Jenkins WAR, port 8090, unlock step, systemd service, and plugin installation.</desc>
  <defs>
    <linearGradient id="bg" x1="0" y1="0" x2="1" y2="1">
      <stop offset="0" stop-color="#f8fafc"/>
      <stop offset="1" stop-color="#edf2f7"/>
    </linearGradient>
    <linearGradient id="server" x1="0" y1="0" x2="1" y2="1">
      <stop offset="0" stop-color="#ffffff"/>
      <stop offset="1" stop-color="#e8eef6"/>
    </linearGradient>
    <filter id="shadow" x="-20%" y="-20%" width="140%" height="140%">
      <feDropShadow dx="0" dy="12" stdDeviation="16" flood-color="#1f2937" flood-opacity="0.14"/>
    </filter>
    <pattern id="grid" width="40" height="40" patternUnits="userSpaceOnUse">
      <path d="M 40 0 L 0 0 0 40" fill="none" stroke="#d9e2ec" stroke-width="1" opacity="0.55"/>
    </pattern>
    <marker id="arrow" viewBox="0 0 10 10" refX="8.5" refY="5" markerWidth="8" markerHeight="8" orient="auto-start-reverse">
      <path d="M 0 0 L 10 5 L 0 10 z" fill="#3b5166"/>
    </marker>
  </defs>

  <rect width="1280" height="720" fill="url(#bg)"/>
  <rect width="1280" height="720" fill="url(#grid)"/>

  <g transform="translate(70 62)">
    <text x="0" y="0" font-family="Inter, Segoe UI, Arial, sans-serif" font-size="44" font-weight="800" fill="#172033">Jenkins WAR Install Guide</text>
    <text x="2" y="40" font-family="Inter, Segoe UI, Arial, sans-serif" font-size="20" fill="#516173">Ubuntu server setup flow for running Jenkins with Java and systemd</text>
  </g>

  <g transform="translate(490 174)" filter="url(#shadow)">
    <rect x="0" y="0" width="300" height="250" rx="8" fill="url(#server)" stroke="#c9d5e2" stroke-width="2"/>
    <rect x="28" y="38" width="244" height="56" rx="6" fill="#26384f"/>
    <circle cx="64" cy="66" r="9" fill="#38bdf8"/>
    <circle cx="104" cy="66" r="9" fill="#84cc16"/>
    <circle cx="144" cy="66" r="9" fill="#f43f5e"/>
    <rect x="46" y="126" width="208" height="26" rx="5" fill="#dbe5ef"/>
    <rect x="46" y="166" width="168" height="26" rx="5" fill="#dbe5ef"/>
    <rect x="46" y="206" width="196" height="26" rx="5" fill="#dbe5ef"/>
    <path d="M150 112 C196 112 232 138 232 176 C232 218 196 244 150 244 C104 244 68 218 68 176 C68 138 104 112 150 112Z" fill="#d33832" opacity="0.1"/>
    <text x="150" y="294" text-anchor="middle" font-family="Inter, Segoe UI, Arial, sans-serif" font-size="24" font-weight="800" fill="#172033">Jenkins Server</text>
  </g>

  <g stroke="#3b5166" stroke-width="4" stroke-linecap="round" fill="none" marker-end="url(#arrow)">
    <path d="M255 268 C340 238 405 238 480 272"/>
    <path d="M255 470 C342 504 407 500 494 390"/>
    <path d="M790 273 C872 236 935 236 1018 270"/>
    <path d="M784 389 C875 508 947 506 1026 470"/>
    <path d="M560 526 C600 586 686 586 725 526"/>
  </g>

  <g font-family="Inter, Segoe UI, Arial, sans-serif">
    <g transform="translate(76 210)" filter="url(#shadow)">
      <rect width="250" height="132" rx="8" fill="#ffffff" stroke="#cbd7e3" stroke-width="2"/>
      <circle cx="54" cy="66" r="28" fill="#f97316"/>
      <text x="54" y="76" text-anchor="middle" font-size="30" font-weight="800" fill="#fff">J</text>
      <text x="98" y="56" font-size="24" font-weight="800" fill="#172033">Java 17</text>
      <text x="98" y="86" font-size="16" fill="#627184">Install JDK first</text>
    </g>

    <g transform="translate(76 408)" filter="url(#shadow)">
      <rect width="250" height="132" rx="8" fill="#ffffff" stroke="#cbd7e3" stroke-width="2"/>
      <path d="M41 34 H72 L92 54 V96 H41 Z" fill="#eef4fb" stroke="#3b5166" stroke-width="3"/>
      <path d="M72 34 V55 H92" fill="none" stroke="#3b5166" stroke-width="3"/>
      <text x="112" y="57" font-size="24" font-weight="800" fill="#172033">jenkins.war</text>
      <text x="112" y="87" font-size="16" fill="#627184">Download and move</text>
    </g>

    <g transform="translate(954 210)" filter="url(#shadow)">
      <rect width="250" height="132" rx="8" fill="#ffffff" stroke="#cbd7e3" stroke-width="2"/>
      <rect x="34" y="38" width="62" height="50" rx="7" fill="#172033"/>
      <path d="M47 55 L58 66 L47 77" fill="none" stroke="#38bdf8" stroke-width="5" stroke-linecap="round" stroke-linejoin="round"/>
      <line x1="64" y1="78" x2="83" y2="78" stroke="#84cc16" stroke-width="5" stroke-linecap="round"/>
      <text x="114" y="57" font-size="24" font-weight="800" fill="#172033">Port 8090</text>
      <text x="114" y="87" font-size="16" fill="#627184">Run java -jar</text>
    </g>

    <g transform="translate(954 408)" filter="url(#shadow)">
      <rect width="250" height="132" rx="8" fill="#ffffff" stroke="#cbd7e3" stroke-width="2"/>
      <rect x="43" y="60" width="58" height="42" rx="7" fill="#d33832"/>
      <path d="M55 60 V47 C55 29 89 29 89 47 V60" fill="none" stroke="#3b5166" stroke-width="8" stroke-linecap="round"/>
      <text x="118" y="57" font-size="24" font-weight="800" fill="#172033">Unlock</text>
      <text x="118" y="87" font-size="16" fill="#627184">Initial admin password</text>
    </g>

    <g transform="translate(515 548)" filter="url(#shadow)">
      <rect width="250" height="116" rx="8" fill="#ffffff" stroke="#cbd7e3" stroke-width="2"/>
      <circle cx="57" cy="58" r="31" fill="#e8f4ff" stroke="#2563eb" stroke-width="3"/>
      <path d="M57 32 V58 L76 70" fill="none" stroke="#2563eb" stroke-width="6" stroke-linecap="round" stroke-linejoin="round"/>
      <path d="M182 34 h18 v18 h18 v18 h-18 v18 h-18 v-18 h-18 v-18 h18z" fill="#84cc16"/>
      <text x="104" y="51" font-size="23" font-weight="800" fill="#172033">systemd</text>
      <text x="104" y="80" font-size="16" fill="#627184">Service + plugins</text>
    </g>
  </g>

  <g transform="translate(444 470)">
    <rect width="392" height="38" rx="8" fill="#172033"/>
    <text x="196" y="25" text-anchor="middle" font-family="Inter, Segoe UI, Arial, sans-serif" font-size="16" font-weight="700" fill="#ffffff">Start, enable, and manage Jenkins as a service</text>
  </g>
</svg>
